Coordinates
version=1
nRows=8
nColumns=40
inDegrees=yes

Units are S.I. units (second, meters, Newtons, ...)
If the header above contains a line with 'inDegrees', this indicates whether rotational values are in degrees (yes) or radians (no).

endheader
time	pelvis_tilt	pelvis_list	pelvis_rotation	pelvis_tx	pelvis_ty	pelvis_tz	hip_flexion_r	hip_adduction_r	hip_rotation_r	knee_angle_r	knee_angle_r_beta	ankle_angle_r	subtalar_angle_r	mtp_angle_r	hip_flexion_l	hip_adduction_l	hip_rotation_l	knee_angle_l	knee_angle_l_beta	ankle_angle_l	subtalar_angle_l	mtp_angle_l	lumbar_extension	lumbar_bending	lumbar_rotation	arm_flex_r	arm_add_r	arm_rot_r	elbow_flex_r	pro_sup_r	wrist_flex_r	wrist_dev_r	arm_flex_l	arm_add_l	arm_rot_l	elbow_flex_l	pro_sup_l	wrist_flex_l	wrist_dev_l
      5.19000000	    -33.05341157	     -0.17442117	     -4.20447958	      0.07906332	      0.42683458	     -1.19410869	    125.26292517	    -24.50414227	     -2.77738145	    117.91701448	      2.05804015	     27.66676506	     -0.66444254	      0.00000000	    129.97761548	    -30.71772051	      9.22148965	    119.78983138	      2.09072697	     23.56712572	      2.31823404	      0.00000000	     -5.29281205	     -4.97871399	      2.14010818	    -12.33327435	     -2.32243144	    -82.92043217	    124.90626683	     45.00000026	      0.00000000	      0.00000000	    -23.04529090	    -21.75540978	    -85.89636565	    135.63327879	     45.00000026	      0.00000000	      0.00000000
      5.19500000	    -32.94464609	     -0.14931322	     -4.21861206	      0.07953382	      0.42585517	     -1.19399505	    125.34035193	    -24.48940338	     -2.66186666	    118.14467495	      2.06201357	     27.72737782	     -0.65932704	      0.00000000	    130.04976136	    -30.80582637	      9.32534859	    120.00115170	      2.09441520	     23.59190437	      2.35073424	      0.00000000	     -5.23205028	     -5.20754908	      1.65596989	    -11.48103350	     -2.50010883	    -82.46113608	    124.52013287	     45.00000026	      0.00000000	      0.00000000	    -23.95216831	    -21.50946797	    -86.30173219	    136.15403384	     45.00000026	      0.00000000	      0.00000000
      5.20000000	    -32.81614300	     -0.12455418	     -4.21581859	      0.08006976	      0.42489566	     -1.19389103	    125.39343155	    -24.50461612	     -2.54704167	    118.38767551	      2.06625473	     27.86506736	     -0.64206824	      0.00000000	    130.05592733	    -30.89468827	      9.41401116	    120.21137047	      2.09808421	     23.79069930	      2.45810706	      0.00000000	     -5.40816322	     -5.15176689	      1.97050388	    -11.99175310	     -2.36083892	    -82.76708662	    124.73842846	     45.00000026	      0.00000000	      0.00000000	    -23.42443006	    -21.68850716	    -86.02453825	    135.89392332	     45.00000026	      0.00000000	      0.00000000
      5.20500000	    -32.69846248	     -0.03432378	     -4.29809473	      0.08055751	      0.42390035	     -1.19360705	    125.48655304	    -24.37253588	     -2.40162822	    118.60469334	      2.07004241	     27.87318661	     -0.63282280	      0.00000000	    130.13245831	    -31.12491294	      9.51321686	    120.42461364	      2.10180601	     23.83738679	      2.59809668	      0.00000000	     -5.45735154	     -5.30144381	      2.02870050	    -11.93835558	     -2.30300882	    -82.77878532	    124.72195823	     45.00000026	      0.00000000	      0.00000000	    -23.38876111	    -21.74711272	    -86.09189186	    135.79112545	     45.00000026	      0.00000000	      0.00000000
      5.21000000	    -32.56229520	     -0.04081023	     -4.27785091	      0.08113937	      0.42295072	     -1.19357884	    125.50801848	    -24.41370209	     -2.29023077	    118.84776577	      2.07428482	     28.03569927	     -0.59944292	      0.00000000	    130.14125749	    -31.14128695	      9.63721779	    120.64474015	      2.10564794	     24.02676904	      2.70952596	      0.00000000	     -5.56705367	     -5.22372286	      2.04075602	    -11.99242144	     -2.23880738	    -82.79377527	    124.96749244	     45.00000026	      0.00000000	      0.00000000	    -23.28017443	    -21.74744944	    -86.00360935	    135.60419808	     45.00000026	      0.00000000	      0.00000000
      5.21500000	    -32.44187100	     -0.04545616	     -4.28795181	      0.08169736	      0.42195349	     -1.19346619	    125.55552222	    -24.41510117	     -2.18952297	    119.08824493	      2.07848197	     28.14679190	     -0.56249585	      0.00000000	    130.22417871	    -31.22199753	      9.80645572	    120.86458968	      2.10948504	     24.05881386	      2.96733297	      0.00000000	     -5.60716837	     -5.19713357	      1.91434478	    -11.72208532	     -2.22062639	    -82.78750335	    125.14406780	     45.00000026	      0.00000000	      0.00000000	    -23.48483096	    -21.69108636	    -86.14237689	    135.44785860	     45.00000026	      0.00000000	      0.00000000
      5.22000000	    -32.31271972	     -0.04677646	     -4.22263922	      0.08227307	      0.42101569	     -1.19354577	    125.59690730	    -24.51367652	     -2.04906157	    119.32573686	      2.08262699	     28.26658772	     -0.54765142	      0.00000000	    130.21001879	    -31.18723088	      9.85120256	    121.07660612	      2.11318542	     24.21437690	      2.88260227	      0.00000000	     -5.70384544	     -5.27262789	      1.84063148	    -11.74214974	     -2.27671236	    -82.68544193	    124.90804454	     45.00000026	      0.00000000	      0.00000000	    -23.50095801	    -21.71236129	    -86.09201403	    135.66228951	     45.00000026	      0.00000000	      0.00000000
      5.22500000	    -32.20313574	     -0.05994809	     -4.22138920	      0.08284862	      0.42002760	     -1.19347769	    125.64453737	    -24.53569813	     -1.95727469	    119.56389116	      2.08678357	     28.37138434	     -0.53876267	      0.00000000	    130.27544072	    -31.22293510	      9.99951389	    121.28994412	      2.11690887	     24.33066703	      2.97973603	      0.00000000	     -5.76970568	     -5.29628980	      1.80159960	    -11.75675183	     -2.28926496	    -82.59983187	    124.78677070	     45.00000026	      0.00000000	      0.00000000	    -23.58204761	    -21.70129784	    -86.13113510	    135.71100529	     45.00000026	      0.00000000	      0.00000000
